<svg width="24" height="24" viewBox="0 0 24 24" fill="none" xmlns="http://www.w3.org/2000/svg">
<path d="M3.80941 9.84C3.84963 9.33881 4.07716 8.87115 4.44668 8.53017C4.81621 8.18918 5.3006 7.9999 5.80341 8H17.8614C18.3642 7.9999 18.8486 8.18918 19.2181 8.53017C19.5877 8.87115 19.8152 9.33881 19.8554 9.84L20.6584 19.84C20.6805 20.1152 20.6454 20.392 20.5552 20.6529C20.4651 20.9139 20.3219 21.1533 20.1347 21.3562C19.9475 21.5592 19.7203 21.7211 19.4674 21.8319C19.2146 21.9427 18.9415 21.9999 18.6654 22H4.99941C4.72333 21.9999 4.45026 21.9427 4.19739 21.8319C3.94452 21.7211 3.71732 21.5592 3.53011 21.3562C3.34289 21.1533 3.19971 20.9139 3.10958 20.6529C3.01945 20.392 2.98432 20.1152 3.00641 19.84L3.80941 9.84V9.84Z" stroke="#F8F8F8" stroke-linecap="round" stroke-linejoin="round"/>
<path d="M15.8325 11V6C15.8325 4.93913 15.4111 3.92172 14.6609 3.17157C13.9108 2.42143 12.8934 2 11.8325 2C10.7717 2 9.75424 2.42143 9.00409 3.17157C8.25395 3.92172 7.83252 4.93913 7.83252 6V11" stroke="#F8F8F8" stroke-linecap="round" stroke-linejoin="round"/>
</svg>
